<svg xmlns="http://www.w3.org/2000/svg" viewBox="0 0 1570 512"><defs><style>.cls-1{fill:#1291ff;}.cls-2{fill:#fff;}.cls-3{fill:#e6e6e6;}.cls-4{fill:none;stroke:#000;stroke-linecap:round;stroke-linejoin:round;stroke-width:7.55px;}</style></defs><title>logo-full</title><g id="Icon"><circle class="cls-1" cx="225.4" cy="280.37" r="217.79"/><path class="cls-2" d="M131,243.31l8.62-15a25.67,25.67,0,0,1,22.19-12.83H343.27V189.4a10.14,10.14,0,0,0-10.11-10.11h-224A10.14,10.14,0,0,0,99,189.4v53.9Z"/><path class="cls-2" d="M83.43,261h49.63a12.52,12.52,0,0,0,10.85-6.27L153.53,238a9.6,9.6,0,0,1,8.32-4.81H366.21a8.23,8.23,0,0,1,8.09,9.75L350.12,371.86a11.74,11.74,0,0,1-11.54,9.58H109.4a9.8,9.8,0,0,1-9.57-7.66L76.53,269.61A7.07,7.07,0,0,1,83.43,261Z"/><path class="cls-3" d="M153.28,362.54A36.22,36.22,0,0,1,150,290.25c1.11-.1,2.24-.15,3.35-.15a36.22,36.22,0,0,1,3.26,72.29C155.52,362.49,154.39,362.54,153.28,362.54Z"/><path d="M153.38,286.33v7.55a32.45,32.45,0,0,1,2.91,64.76c-1,.09-2,.14-3,.14A32.45,32.45,0,0,1,150.37,294c1-.09,2-.14,3-.14v-7.55m0,0c-1.22,0-2.45.06-3.69.17a40,40,0,0,0,3.6,79.82c1.22,0,2.45-.06,3.69-.17a40,40,0,0,0-3.6-79.82Z"/><polyline class="cls-4" points="167.75 339.02 153.33 326.32 150.99 300.77"/></g><g id="Text"><path class="cls-2" d="M653,264.25q-.47-8.94-1.06-18.6t-1.06-19q-.47-9.3-.71-17.66t-.24-14.95h-.71q-4,13.19-9.06,27.43t-11.65,31.9l-32.72,86.17H588l-30.61-84q-6.59-18.59-11.54-33.31t-8.47-28.13h-.71q-.24,14.13-1.06,33.43t-2.24,39.08l-4.94,73H517.6l11.3-158.68h12.71L575,271.78q5.41,15.31,9.65,27.54t7.53,24h.71Q596,312,600.11,300t10.24-28l34.37-91.11h13.42l10.59,158.68H657.67Z"/><path class="cls-2" d="M744.43,224a51,51,0,0,1,20.67,4.12,45.35,45.35,0,0,1,16.09,11.77,55.4,55.4,0,0,1,10.45,18.36,71.85,71.85,0,0,1,3.76,23.9q0,15.77-4.7,27.19A53.7,53.7,0,0,1,778.36,328a48.62,48.62,0,0,1-16.91,10.71A53.16,53.16,0,0,1,743,342.18a49.6,49.6,0,0,1-19.85-4,45.31,45.31,0,0,1-16.09-11.65,55.73,55.73,0,0,1-10.69-18.36A70.63,70.63,0,0,1,692.51,284a72.66,72.66,0,0,1,4.23-25.78,55.28,55.28,0,0,1,11.51-18.83,48.67,48.67,0,0,1,16.56-11.54A50.26,50.26,0,0,1,744.43,224Zm-.12,9.42q-10.59,0-18.25,4.47a40.73,40.73,0,0,0-12.71,11.54,48.23,48.23,0,0,0-7.42,16,70,70,0,0,0-2.35,17.89A63.22,63.22,0,0,0,706.52,303a48.66,48.66,0,0,0,8.24,15.66A38.87,38.87,0,0,0,727.36,329a34.87,34.87,0,0,0,16.24,3.77A35.82,35.82,0,0,0,759.85,329a39.37,39.37,0,0,0,12.95-10.36,49,49,0,0,0,8.48-15.77,63.77,63.77,0,0,0,3.06-20.25,65.08,65.08,0,0,0-2.24-16.36,54.52,54.52,0,0,0-6.95-15.89,39.75,39.75,0,0,0-12.36-12.12Q755.14,233.41,744.31,233.41Z"/><path class="cls-2" d="M823.88,253.66q0-8-.24-14.13t-.71-12.95h10.83v19.54h.94a46.7,46.7,0,0,1,13.66-15.72q8.47-6.17,22.13-6.17A30.66,30.66,0,0,1,890.39,231a36.84,36.84,0,0,1,11.89,17.25h.47a45.25,45.25,0,0,1,11.5-14.92,42,42,0,0,1,11.38-6.76,40.27,40.27,0,0,1,25-.69,29.27,29.27,0,0,1,11.85,6.81q5.75,5.17,9.85,14.57t4.11,25.14v67.2H965.37V273.67q0-18.83-6.94-29.43t-21.78-10.59a26.43,26.43,0,0,0-18,6.71A38.2,38.2,0,0,0,907.69,256q-.71,2.59-1.29,5.3a27.06,27.06,0,0,0-.59,5.77v72.51H894.74v-71.1q0-15.06-6.95-25t-20.6-9.89a26,26,0,0,0-10.36,2.12A33,33,0,0,0,848,241.3a37.56,37.56,0,0,0-6.83,8,42.33,42.33,0,0,0-4.59,9.53q-.71,2.59-1.18,5.3a33.54,33.54,0,0,0-.47,5.77v69.69H823.88Z"/><path class="cls-2" d="M1015,281.67q0,14,3.41,23.54a44.36,44.36,0,0,0,9.18,15.73,33.66,33.66,0,0,0,13.42,8.87,47.77,47.77,0,0,0,16.13,2.72q11.3,0,18.48-2.12a95.41,95.41,0,0,0,11.89-4.24l2.83,8.65a68.94,68.94,0,0,1-11.89,4.48q-8.6,2.64-22.72,2.64a52.69,52.69,0,0,1-21.54-4.23A47.4,47.4,0,0,1,1017.94,326a51.82,51.82,0,0,1-10.36-18,69.83,69.83,0,0,1-3.61-22.91,78.76,78.76,0,0,1,3.77-25.26,59.75,59.75,0,0,1,10.36-19.15,44.47,44.47,0,0,1,15.66-12.22,45.93,45.93,0,0,1,19.66-4.23q13.65,0,22,5.63a42.83,42.83,0,0,1,13.07,13.48,50.26,50.26,0,0,1,6.36,16.53,82.29,82.29,0,0,1,1.65,15v3.75a27.31,27.31,0,0,1-.24,3.28ZM1085,273a66.76,66.76,0,0,0-1.41-13.14,37.87,37.87,0,0,0-5.16-12.9,31,31,0,0,0-10.09-9.83q-6.33-3.91-16.19-3.91a30.47,30.47,0,0,0-15.48,3.79,37.12,37.12,0,0,0-11,9.59,43.63,43.63,0,0,0-6.81,12.79,63.68,63.68,0,0,0-3,13.62Z"/><path class="cls-2" d="M1124.51,253.66q0-8-.24-14.13t-.71-12.95h10.83v20h.94a39.5,39.5,0,0,1,14.36-15.84q9.89-6.52,23.54-6.53a48.13,48.13,0,0,1,10.48,1.53,32.71,32.71,0,0,1,12.71,6.46q6.23,4.93,10.71,14.21t4.47,24.79v68.37h-11.06V272.25a68.86,68.86,0,0,0-1.53-14.6A35.71,35.71,0,0,0,1194,245.3a25.89,25.89,0,0,0-9.42-8.48,29.88,29.88,0,0,0-14.36-3.18,31.82,31.82,0,0,0-20.72,7.3,36.67,36.67,0,0,0-12.24,18.6,28.4,28.4,0,0,0-1.65,9.89v70.16h-11.06Z"/><path class="cls-2" d="M1263.41,201.63v25h31.31v8.95h-31.31v73.69q0,11.07,3.65,17.19t12.6,6.12a48.45,48.45,0,0,0,7.3-.47,32.07,32.07,0,0,0,5.18-1.18l1.18,8.48a28.1,28.1,0,0,1-6.36,1.88,47.72,47.72,0,0,1-8.71.71q-7.77,0-12.8-2.59a19.85,19.85,0,0,1-7.91-7.18,30.77,30.77,0,0,1-4-11.06,80,80,0,0,1-1.15-14V235.53h-18.6v-8.95h18.6V205.87Z"/><path class="cls-2" d="M1315,324.75a63.26,63.26,0,0,0,10.83,5.3,38,38,0,0,0,13.89,2.47q13.18,0,19.54-6.24a20.46,20.46,0,0,0,6.36-15.18q0-9.18-5.65-14.95t-17.66-10.71q-13.66-5.41-21-12.95a24.83,24.83,0,0,1-7.3-17.89,29.43,29.43,0,0,1,2.35-11.65,29,29,0,0,1,6.83-9.77,32.81,32.81,0,0,1,10.83-6.71A39.37,39.37,0,0,1,1348.4,224a43.69,43.69,0,0,1,13.89,2.12,44.43,44.43,0,0,1,10.59,4.94l-4.47,9.18a43.11,43.11,0,0,0-8.12-4.47q-5.3-2.35-13.54-2.35-10.59,0-16.13,5.89a19.32,19.32,0,0,0-5.53,13.65q0,8.71,5.65,13.54t17.19,9.53q13.42,5.42,21.07,13.07t7.65,20.6q0,14.83-10.36,23.54T1339,341.94a55.43,55.43,0,0,1-15.54-2.12,47.2,47.2,0,0,1-12.71-5.65Z"/></g></svg>